<?xml version="1.0" encoding="UTF-8"?><svg id="Layer_2" xmlns="http://www.w3.org/2000/svg" viewBox="0 0 4595.91 2416.91"><path d="M4578.44,856.58c-44.3-122.46-149.94-201.8-285.27-234.65-7.14-1.73-10.5,8.49-3.7,11.28,86.86,35.58,118.06,93.88,136.85,154.85,67.68,219.7-196.67,518.24-624.76,710.31l348.92-423.81-19.11-57.86-431.42,524.01c-8.47,3.27-16.99,6.49-25.56,9.68l305.09-486.36,138.03-73.66-67.6-22.33-81.93,43.72-221.48-274.53,344.42,104.18,32.39-10.7,10.01-30.31-379.69-114.85,247.12-94.35,146.72,166.38,11.97-36.26c2.12-6.41,5.53-12.11,9.87-16.88l-141.73-160.72c-2.59-2.94-5.82-5.24-9.43-6.75l-312.95-130.18c-3.13-1.3-6.49-1.97-9.89-1.97h-598.92c-3.17,0-6.31,.58-9.26,1.73l-337.56,130.18c-3.86,1.48-7.3,3.89-10.05,7l-275.05,311.92c-.06,.08-.13,.17-.19,.24-.15,.18-.31,.35-.46,.53-.15,.21-.31,.41-.46,.61-.22,.3-.44,.59-.64,.89-.13,.18-.26,.35-.37,.54-.12,.15-.21,.32-.31,.49-.24,.39-.48,.79-.7,1.17-.09,.15-.18,.28-.27,.44-.01,.03-.01,.05-.03,.08-.06,.12-.13,.24-.18,.36-.24,.46-.45,.94-.66,1.42l-.04,.08c-.1,.23-.21,.46-.3,.7-.19,.49-.36,.98-.53,1.48-.06,.22-.15,.43-.22,.64-.03,.08-.05,.14-.06,.22-.14,.48-.24,.97-.36,1.44-.05,.27-.13,.53-.18,.79-.08,.39-.12,.76-.17,1.15-.06,.37-.13,.75-.17,1.13-.01,.08-.03,.15-.03,.23-.04,.35-.04,.71-.05,1.07-.03,.35-.05,.71-.05,1.06,0,.14-.01,.27-.01,.4,0,.28,.03,.57,.04,.86,.01,.39,.03,.77,.06,1.16,.01,.17,.01,.33,.03,.49,.03,.22,.08,.44,.1,.64,.05,.45,.13,.9,.21,1.35h0c.05,.31,.12,.61,.18,.9,0,.01,0,.03,.01,.04,.1,.48,.22,.95,.36,1.43,.05,.21,.09,.4,.15,.59,.01,.03,.01,.05,.03,.09,.03,.1,.06,.19,.1,.3,.12,.37,.26,.73,.39,1.09,.09,.23,.17,.48,.27,.71,.04,.1,.09,.21,.14,.31,.13,.31,.27,.62,.41,.91,.14,.3,.27,.61,.43,.89,.06,.13,.14,.26,.21,.4,.12,.19,.23,.39,.35,.59,.19,.35,.4,.7,.62,1.03,.1,.15,.21,.32,.31,.48,.08,.1,.14,.21,.22,.31,.11,.16,.22,.3,.34,.46h-340.05c3.55-10.6,5.64-21.82,6.05-33.42,1.56-44.36-21.78-85.03-58.94-106.57-1.43-24.77-10.63-48.62-26.75-68.2-22.62-27.46-55.98-43.2-91.54-43.2-33.12,0-64.96,14.07-87.36,38.62l-43.4,47.57-63.56,14.33c-52.43,11.83-90.37,57.61-92.25,111.33-.66,18.77,3.15,36.89,10.57,53.17-2.25,.96-4.5,1.97-6.75,3.03-19.96-10.87-43.04-16.66-67.37-16.66h-179.48c-3.38-14.41-8.75-27.87-16.1-40.23l-108.67-184.65c-22.54-39.14-62.57-62.5-107.12-62.5-23.39,0-82.1,7.47-122,76.63l-121.88,211.19c-3.79-.29-7.62-.43-11.48-.43H383.12c-32.26,0-63.83,9.69-93.85,28.79-26.57,16.92-47.88,38.54-63.31,64.26-.37,.62-.74,1.25-1.13,1.94l-89.65,156.47c-12.43,20.74-19.61,42.43-21.41,64.63-19.14,14.88-34.93,32.58-47.06,52.79-.39,.64-.77,1.29-1.17,1.99l-45.16,78.82c-.48,.84-.95,1.69-1.41,2.53-12.59,23.36-18.97,47.63-18.97,72.12,0,74.24,57.04,130.23,132.69,130.23H684.46c19.89,0,39.67-3.73,59.06-11.1,17.17,7.31,36.12,11.1,55.9,11.1h197.15c27.94,0,55.4-7.27,81.81-21.66,21.69,14.01,47.88,21.66,75.74,21.66h197.06c24.58,0,48.74-5.61,72.1-16.72,19.98,10.91,43.1,16.72,67.48,16.72h197.06c20.72,0,41.4-4.17,61.74-12.43,17.94,8.18,37.92,12.43,58.95,12.43h197.13c27.57,0,54.97-7.34,81.59-21.82,18.09,11.75,39.34,19.04,62.08,21.16-16.89,67.2-15.73,131.81,5.85,191.47,99.46,274.93,599.65,353.26,1172.57,205.07l35.92,43.63c.06,.09,.14,.17,.21,.25,.13,.15,.26,.3,.39,.45,.01,0,.03,.01,.04,.03,.12,.14,.24,.3,.37,.43,.23,.26,.48,.5,.72,.73,.09,.09,.17,.19,.27,.28,.05,.05,.12,.12,.18,.17,.21,.21,.44,.4,.66,.61,.1,.09,.21,.18,.32,.27,.27,.23,.54,.45,.81,.67,.04,.04,.08,.06,.12,.1,.06,.05,.14,.1,.21,.14,.3,.23,.59,.45,.9,.67,.08,.05,.17,.1,.24,.17,.76,.52,1.55,.99,2.36,1.42,.08,.04,.14,.08,.21,.12,.23,.12,.46,.23,.71,.35,.06,.04,.14,.08,.21,.1,.13,.06,.26,.12,.39,.18,.19,.08,.37,.15,.57,.23,.15,.06,.31,.14,.46,.21,.15,.06,.32,.12,.49,.18,.21,.08,.4,.15,.61,.23,.12,.04,.23,.06,.35,.1,.19,.06,.39,.13,.58,.19,.33,.1,.67,.19,1,.28,.18,.05,.35,.09,.53,.13,.14,.04,.28,.08,.43,.1,.23,.05,.46,.1,.7,.14,.12,.03,.24,.05,.37,.08,.17,.03,.32,.05,.49,.08,.26,.04,.52,.08,.76,.12,.09,.01,.18,.01,.27,.03,.18,.03,.37,.04,.57,.05,.27,.03,.53,.06,.8,.08,.05,0,.12,0,.17,.01,.18,.01,.35,.01,.53,.01,.14,0,.28,.01,.43,.01,.15,0,.32,.01,.49,.01h.05c.17,0,.32-.01,.49-.01,.14,0,.28-.01,.41-.01,.18,0,.36,0,.54-.01,.05-.01,.12-.01,.17-.01,.26-.01,.53-.05,.8-.08,.19-.01,.39-.03,.57-.05,.09-.01,.18-.01,.26-.03,.26-.04,.52-.08,.77-.12,.17-.03,.34-.05,.49-.09,.13-.01,.24-.04,.37-.06,.23-.04,.46-.09,.7-.14,.14-.03,.28-.06,.42-.1,.18-.04,.35-.08,.52-.13,.34-.09,.68-.18,1.03-.3,.18-.05,.37-.12,.55-.17,.12-.04,.23-.08,.35-.12,.22-.08,.43-.15,.63-.23,.15-.06,.31-.12,.46-.18,.15-.06,.31-.13,.46-.19,.21-.09,.4-.17,.59-.26,.12-.05,.24-.1,.36-.15,.12-.06,.23-.13,.36-.18,.15-.09,.32-.17,.48-.24,.1-.05,.21-.1,.31-.15,.43-.23,.85-.48,1.28-.73,.03-.01,.05-.03,.09-.05,.31-.19,.63-.4,.94-.61,.09-.08,.19-.14,.3-.21,.3-.21,.58-.43,.86-.63,.08-.06,.15-.12,.22-.17,.05-.04,.09-.08,.14-.1,.26-.22,.53-.44,.79-.66,.12-.1,.23-.19,.35-.3,.22-.19,.43-.39,.64-.58,.06-.06,.12-.13,.18-.18,.1-.1,.19-.21,.3-.3,.23-.23,.46-.46,.68-.71,.14-.15,.27-.31,.41-.46,.13-.15,.27-.3,.4-.45,.06-.08,.13-.15,.19-.23l70.86-86.07c32.49-10.41,65.12-21.51,97.84-33.35,669.17-242.08,1119.71-692.45,1006.3-1005.94Zm-981.95,721.04c-63.27,20.74-125.9,37.96-187.18,51.72v-425.29l496.58-119.66-309.4,493.24Zm-373.48,83.51l-95.71-152.59c23.88-16.53,42.85-37.09,56.46-61.26l45.46-77.93c.64-1.09,1.26-2.2,1.87-3.33,10.67-19.83,16.87-40.3,18.5-61,19.06-14.83,34.78-32.47,46.87-52.6,.33-.55,.66-1.11,.95-1.61l31.14-53.79,29.23,7.05v436.1c-45.93,8.97-90.96,15.95-134.77,20.98Zm-141.56-128.71l67.64,107.84-84.55-102.7c5.67-1.41,11.3-3.12,16.91-5.14Zm194.35-644.58h-46.17l-74.56-119.73-19.49-31.3-14.11-22.66h507.55l-246.14,419.8-9.24-14.84,15.02-25.95c.54-.94,1.07-1.88,1.62-2.9,12.62-23.39,19.03-47.68,19.03-72.2,0-74.24-57.4-130.23-133.51-130.23Zm-305.01-18.77l72.56-95.99,29.67-39.25,13.56,21.78,22.06,35.43,60.28,96.8h-212.33l14.19-18.77Zm944.9,159.95l-479.27,115.49,240.93-410.92,238.34,295.43Zm-814.51-572.67h588.97l248.55,103.4-269.47,102.88h-589.16l-251.05-101.31,272.15-104.96Zm-335.08,135.14l232.4,93.79-434.53,135.44,202.14-229.23Zm-215.85,287.47l455.87-142.09-59.28,78.41-54.85,72.56h-167.98c-19.77,0-39.39,3.68-58.55,10.97-17.09-7.22-35.93-10.97-55.57-10.97h-42.99l-16.65-8.88Zm-459.34,588.47c-4.81,3.82-9.93,7.41-15.34,10.77-23.15,14.4-46.7,21.71-69.95,21.71h-197.13c-22.21,0-41.84-6.57-57.15-17.95-21.07,11.89-42.42,17.95-63.54,17.95h-197.06c-26.2,0-48.82-9.11-64.96-24.51-1.19,.8-2.4,1.6-3.62,2.37-23.04,14.68-46.94,22.13-71,22.13h-197.06c-30.37,0-55.94-12.23-72.16-32.32-4.56,3.62-9.37,7.04-14.43,10.26-23.1,14.65-46.96,22.06-70.95,22.06h-197.15c-20.86,0-39.45-5.79-54.31-15.92-19.94,10.55-40.3,15.92-60.65,15.92H132.69c-52.25,0-90.18-36.89-90.18-87.72,0-17.38,4.67-34.86,13.88-51.96,.28-.52,.57-1.04,.86-1.55l45.16-78.82c.23-.4,.46-.8,.7-1.19,12.01-20.01,28.73-36.93,49.69-50.28,1.21-.77,2.41-1.52,3.63-2.24-.41-3.59-.61-7.26-.61-11,0-18.41,5.39-36.67,16.02-54.3l89.87-156.87c.23-.4,.46-.8,.7-1.19,12.01-20.02,28.74-36.94,49.7-50.29,23.08-14.69,46.97-22.14,71.02-22.14H934.89c11.89,0,23.03,1.89,33.17,5.38l137-237.39c27.79-48.17,65.3-55.36,85.18-55.36,29.29,0,55.52,15.44,70.38,41.36l108.83,184.93c9.57,16.1,14.43,35.23,14.43,56.84,0,1.42-.02,2.83-.06,4.24h217.78c26.09,0,48.63,9.04,64.76,24.33,1.3-.86,2.63-1.71,3.97-2.55,23.25-14.46,46.8-21.78,70.03-21.78h28.05l.59-3.03-7.39-2.22c-32.99-9.91-55.19-40.88-53.98-75.31,1.2-34.43,25.52-63.77,59.12-71.36l76.6-17.27,52.41-57.44c14.36-15.74,34.75-24.76,55.96-24.76,22.81,0,44.22,10.1,58.73,27.72,14.42,17.5,20.18,40.36,15.82,62.71l-1.17,6,7.39,2.22c32.99,9.91,55.19,40.89,53.98,75.32-1.21,34.43-25.52,63.77-59.13,71.35l-54.43,12.28c7.92,2.96,15.18,6.92,21.67,11.74,21.13-11.91,42.47-17.95,63.54-17.95h551.77c20.75,0,39.25,5.73,54.07,15.76,2.08-1.11,4.17-2.15,6.27-3.14,17.66-8.37,35.68-12.62,53.79-12.62h551.77c52.73,0,91,36.89,91,87.72,0,17.4-4.69,34.9-13.92,52.01-.32,.59-.65,1.18-.99,1.77l-3.7,6.39-29.24,50.51-6.57,11.35-26.93,46.51-24.83,42.88c-.18,.32-.37,.63-.56,.95-12.04,20.04-28.79,36.96-49.79,50.3-1.13,.72-2.26,1.42-3.39,2.1,.41,3.62,.63,7.32,.63,11.11,0,17.35-4.66,34.82-13.86,51.92-.37,.69-.76,1.38-1.15,2.05l-45.63,78.22c-10.12,18.08-24.28,33.62-42.18,46.34-2.75,1.95-5.58,3.85-8.5,5.67-12.52,7.8-25.23,13.5-38.03,17.11-8.25,2.33-16.55,3.79-24.84,4.35-2.65,.18-5.29,.29-7.94,.29h-551.77c-20.6,0-38.96-5.75-53.66-15.81-19.81,10.48-39.83,15.81-59.65,15.81h-197.06c-.4,0-.78-.03-1.18-.03-29.93-.32-55.11-12.53-71.12-32.45Z"/><path d="M843.75,1215.12c0-13.14-7.39-19.71-22.17-19.71h-275.89c-15.33,0-22.99-6.57-22.99-19.73,0-6.02,1.9-12.59,5.7-19.72l45.98-78.82c6.02-10.93,15.19-20.23,27.52-27.89,12.32-7.65,23.68-11.48,34.1-11.48,15.33,0,23,6.57,23,19.71,0,6.03-1.92,12.6-5.75,19.7l-22.99,39.41c-3.84,7.12-5.75,13.69-5.75,19.71,0,13.14,7.39,19.71,22.17,19.71h197.06c10.94,0,22.58-3.82,34.9-11.5,12.32-7.66,21.48-16.96,27.51-27.92l45.16-78.82c4.38-7.11,6.57-13.68,6.57-19.71,0-13.14-7.67-19.71-22.99-19.71H383.12c-10.96,0-22.45,3.84-34.49,11.5-12.05,7.67-21.35,16.97-27.92,27.92l-90.32,157.65c-4.39,7.12-6.57,13.69-6.57,19.71,0,13.14,7.66,19.71,22.99,19.71h275.89c15.32,0,22.99,6.53,22.99,19.59,0,6-2.32,12.53-6.95,19.6l-45.25,78.77c-6.54,11.03-15.79,20.4-27.76,28.11-11.98,7.72-23.41,11.57-34.29,11.57-15.24,0-22.86-6.57-22.86-19.7,0-6.02,2.18-12.59,6.57-19.71l22.17-39.41c4.37-7.11,6.57-13.68,6.57-19.71,0-13.14-7.67-19.71-22.99-19.71H223.83c-10.96,0-22.45,3.84-34.49,11.5-12.05,7.67-21.35,16.97-27.92,27.92l-45.16,78.82c-3.84,7.12-5.75,13.69-5.75,19.71,0,13.14,7.39,19.71,22.17,19.71H684.46c10.94,0,22.58-3.82,34.9-11.5,12.32-7.66,21.48-16.96,27.51-27.92l91.14-157.65c3.82-7.11,5.75-13.68,5.75-19.71Z"/><path d="M1624.6,1018.06c0-13.14-7.67-19.71-22.99-19.71h-275.89c-16.42,0-24.63-6.29-24.63-18.88,0-4.93,1.64-10.12,4.92-15.6,6.57-11.5,9.85-24.08,9.85-37.77,0-9.3-1.64-16.69-4.92-22.17l-109.21-185.57c-2.75-4.93-6.57-7.39-11.49-7.39-9.32,0-18.07,7.12-26.28,21.35l-380.99,660.15c-4.37,7.12-6.57,13.69-6.57,19.71,0,13.14,7.66,19.71,23,19.71h197.15c10.94,0,22.44-3.82,34.5-11.47,12.04-7.65,21.36-16.95,27.93-27.88l181.47-315.28c6.54-10.97,15.83-20.3,27.85-27.97,12.01-7.67,23.48-11.52,34.41-11.52,15.32,0,22.99,6.57,22.99,19.71,0,6.03-2.19,12.6-6.57,19.7l-181.46,315.3c-4.39,7.12-6.57,13.69-6.57,19.71,0,13.14,7.66,19.71,22.99,19.71h197.06c10.94,0,22.44-3.82,34.48-11.5,12.04-7.66,21.35-16.96,27.92-27.92l204.45-354.71c4.37-7.11,6.57-13.68,6.57-19.71Z"/><path d="M1960.42,1018.06c0-13.14-7.67-19.71-22.99-19.71h-197.06c-10.4,0-21.76,3.84-34.07,11.5-12.32,7.67-21.49,16.97-27.51,27.92l-205.27,354.71c-3.84,7.12-5.75,13.69-5.75,19.71,0,13.14,7.66,19.71,22.99,19.71h197.06c10.39,0,21.76-3.82,34.07-11.5,12.32-7.66,21.48-16.96,27.51-27.92l205.27-354.71c3.82-7.11,5.75-13.68,5.75-19.71Z"/><path d="M2191.63,1431.89h168.65c10.39,0,21.76-3.82,34.08-11.5,12.32-7.66,21.48-16.96,27.51-27.92l188.43-325.6,1.97-3.41,14.87-25.7c3.82-7.11,5.75-13.68,5.75-19.71,0-1.98-.2-3.79-.54-5.47-1.22-5.88-4.56-9.95-10.03-12.18-1.52-.62-3.21-1.1-5.06-1.44-2.22-.41-4.67-.62-7.36-.62h-551.77c-10.4,0-21.76,3.84-34.08,11.5-12.32,7.67-21.49,16.97-27.51,27.92l-205.27,354.71c-3.84,7.12-5.75,13.69-5.75,19.71,0,13.14,7.66,19.71,22.99,19.71h197.13c10.39,0,21.76-3.82,34.07-11.48,12.32-7.65,21.49-16.95,27.52-27.88l182.28-315.3c6-10.96,15.16-20.28,27.48-27.96,12.3-7.67,23.93-11.51,34.87-11.51,14.75,0,22.14,6.57,22.14,19.71,0,6.03-1.92,12.6-5.75,19.7l-182.28,315.3c-3.84,7.12-5.75,13.69-5.75,19.71,0,13.14,7.66,19.71,22.99,19.71h28.41Z"/><path d="M2629.32,1095.01l-172.15,297.47c-3.82,7.12-5.75,13.69-5.75,19.71,0,13.14,7.39,19.71,22.17,19.71h551.77c10.94,0,22.58-3.82,34.9-11.5,2.91-1.81,5.62-3.71,8.18-5.7,8.27-6.44,14.72-13.84,19.33-22.21l45.98-78.82c3.82-7.11,5.75-13.68,5.75-19.71,0-13.14-7.67-19.71-22.99-19.71h-197.06c-10.96,0-22.45,3.84-34.49,11.5-6.38,4.06-11.88,8.59-16.57,13.57-4.17,4.42-7.69,9.2-10.53,14.35l-18.41,31.56-4.58,7.85c-6.57,10.96-15.88,20.26-27.92,27.92-12.05,7.67-23.54,11.5-34.49,11.5-15.33,0-22.99-6.65-22.99-19.94,0-6.08,1.92-12.73,5.8-19.94l37.15-64.5,8.07-14.02c6.12-10.16,14.67-18.88,25.56-26.2,.8-.54,1.57-1.08,2.4-1.6,12.06-7.63,23.57-11.46,34.54-11.46h276.27c10.96,0,22.48-3.82,34.54-11.5,12.06-7.66,21.37-16.96,27.96-27.92l14.72-25.43,26.93-46.51,34.81-60.13,14.81-25.58c3.84-7.11,5.76-13.68,5.76-19.71,0-13.14-7.67-19.71-22.99-19.71h-551.77c-10.96,0-22.45,3.84-34.49,11.5-.52,.33-1,.68-1.5,1.01-11.28,7.48-19.83,16.43-25.59,26.9l-3.87,6.69-27.55,47.6-1.71,2.95Zm313.35-45.78c12.36-7.63,24.03-11.46,35.01-11.46,14.82,0,22.23,6.57,22.23,19.71,0,2.29-.28,4.67-.84,7.12-.9,3.99-2.54,8.19-4.91,12.59l-20.06,34.4-25.92,44.43c-5.67,10.3-14.14,19.12-25.37,26.51-.71,.47-1.4,.95-2.14,1.41-12.32,7.67-23.68,11.5-34.08,11.5-15.33,0-22.99-6.59-22.99-19.78,0-6.04,1.82-12.64,5.49-19.78l17.82-30.55,17.76-30.45,10.39-17.82c5.7-10.3,14.26-19.12,25.61-26.51,.66-.43,1.3-.88,1.98-1.3Z"/><path d="M1781.21,859.96l59.55,17.9c3.87,1.16,6.22,5.07,5.45,9.03l-11.6,59.46c-1.52,7.79,8.16,12.67,13.51,6.8l65.16-71.41c1.08-1.19,2.51-2.01,4.07-2.37l95.04-21.43c7.88-1.78,8.27-12.86,.53-15.19l-59.55-17.9c-3.87-1.16-6.22-5.07-5.45-9.03l11.6-59.46c1.52-7.79-8.16-12.67-13.51-6.8l-65.16,71.41c-1.08,1.19-2.51,2.01-4.07,2.37l-95.04,21.43c-7.88,1.78-8.27,12.86-.53,15.19Z"/><path d="M4152.28,851.41c-.96,2.9-2.89,5.33-5.42,6.92-.89,.56-1.84,1.02-2.86,1.36l-119.42,39.44c-11.92,3.94-11.92,20.8,0,24.73l66.78,22.05,52.64,17.38c3.92,1.29,6.99,4.37,8.28,8.28l.06,.19,4.58,13.87,19.11,57.86,15.68,47.49c3.94,11.92,20.8,11.92,24.73,0l39.44-119.42c1.29-3.92,4.37-6.99,8.28-8.28l119.42-39.44c11.92-3.94,11.92-20.8,0-24.73l-74.6-24.64-44.81-14.8c-3.92-1.29-6.99-4.37-8.28-8.28l-25.74-77.96-13.69-41.46c-3.77-11.41-19.35-11.87-24.13-1.43-.21,.47-.43,.92-.6,1.43l-18.21,55.14-7.63,23.12-13.59,41.16Z"/></svg>